<svg width="104" height="20" viewBox="0 0 104 20" fill="none" xmlns="http://www.w3.org/2000/svg">
<path d="M6.576 16.16C5.59467 16.16 4.74133 15.9893 4.016 15.648C3.30133 15.3067 2.704 14.848 2.224 14.272C1.744 13.6853 1.38667 13.0347 1.152 12.32C0.917333 11.5947 0.8 10.8533 0.8 10.096C0.8 9.33867 0.917333 8.59733 1.152 7.872C1.38667 7.14667 1.744 6.496 2.224 5.92C2.71467 5.33333 3.32267 4.86933 4.048 4.528C4.784 4.176 5.64267 4 6.624 4C7.392 4 8.048 4.096 8.592 4.288C9.136 4.48 9.59467 4.73067 9.968 5.04C10.3413 5.33867 10.64 5.65867 10.864 6C11.088 6.34133 11.2587 6.66667 11.376 6.976C11.4933 7.28533 11.5733 7.536 11.616 7.728C11.6587 7.92 11.68 8.016 11.68 8.016H9.808C9.808 8.016 9.78667 7.936 9.744 7.776C9.70133 7.616 9.616 7.424 9.488 7.2C9.37067 6.96533 9.19467 6.73067 8.96 6.496C8.72533 6.26133 8.416 6.06933 8.032 5.92C7.65867 5.76 7.19467 5.68 6.64 5.68C5.97867 5.68 5.39733 5.808 4.896 6.064C4.40533 6.30933 3.99467 6.64 3.664 7.056C3.344 7.472 3.104 7.94133 2.944 8.464C2.784 8.98667 2.704 9.52 2.704 10.064C2.704 10.6187 2.784 11.1627 2.944 11.696C3.11467 12.2187 3.36 12.6933 3.68 13.12C4.01067 13.536 4.416 13.8667 4.896 14.112C5.38667 14.3573 5.95733 14.48 6.608 14.48C7.62133 14.48 8.42667 14.192 9.024 13.616C9.62133 13.04 9.952 12.2613 10.016 11.28H6.64V9.776H11.824V10.624C11.824 11.84 11.5893 12.8587 11.12 13.68C10.6613 14.5013 10.032 15.12 9.232 15.536C8.44267 15.952 7.55733 16.16 6.576 16.16ZM14.7545 6.064C14.4238 6.064 14.1518 5.952 13.9385 5.728C13.7252 5.504 13.6185 5.24267 13.6185 4.944C13.6185 4.63467 13.7252 4.37333 13.9385 4.16C14.1518 3.936 14.4238 3.824 14.7545 3.824C15.0852 3.824 15.3572 3.936 15.5705 4.16C15.7945 4.37333 15.9065 4.63467 15.9065 4.944C15.9065 5.25333 15.7945 5.52 15.5705 5.744C15.3572 5.95733 15.0852 6.064 14.7545 6.064ZM13.8585 16V7.52H15.6825V16H13.8585ZM22.2008 19.376C21.4648 19.376 20.8568 19.28 20.3768 19.088C19.8968 18.896 19.5128 18.656 19.2248 18.368C18.9368 18.0907 18.7234 17.808 18.5848 17.52C18.4461 17.2427 18.3554 17.008 18.3128 16.816C18.2701 16.624 18.2488 16.528 18.2488 16.528H20.0568C20.0568 16.528 20.0781 16.592 20.1208 16.72C20.1634 16.8587 20.2541 17.0133 20.3928 17.184C20.5421 17.3653 20.7608 17.52 21.0488 17.648C21.3368 17.7867 21.7154 17.856 22.1848 17.856C22.7394 17.856 23.1821 17.744 23.5128 17.52C23.8541 17.3067 24.0941 17.0187 24.2328 16.656C24.3821 16.304 24.4568 15.92 24.4568 15.504V14.544H24.3768C24.2594 14.7253 24.0888 14.928 23.8648 15.152C23.6514 15.3653 23.3634 15.552 23.0008 15.712C22.6381 15.872 22.2008 15.952 21.6888 15.952C21.0488 15.952 20.4888 15.8293 20.0088 15.584C19.5394 15.3387 19.1448 15.0133 18.8248 14.608C18.5154 14.192 18.2808 13.728 18.1208 13.216C17.9608 12.704 17.8808 12.1813 17.8808 11.648C17.8808 11.1147 17.9608 10.5973 18.1208 10.096C18.2808 9.584 18.5154 9.12533 18.8248 8.72C19.1448 8.304 19.5394 7.97333 20.0088 7.728C20.4888 7.48267 21.0488 7.36 21.6888 7.36C22.2008 7.36 22.6381 7.44 23.0008 7.6C23.3634 7.74933 23.6568 7.936 23.8808 8.16C24.1048 8.37333 24.2701 8.576 24.3768 8.768H24.4568V7.52H26.2808V15.488C26.2808 16.2453 26.1261 16.9173 25.8168 17.504C25.5074 18.0907 25.0488 18.5493 24.4408 18.88C23.8328 19.2107 23.0861 19.376 22.2008 19.376ZM22.1048 14.448C22.6274 14.448 23.0648 14.3147 23.4168 14.048C23.7688 13.7707 24.0301 13.4187 24.2008 12.992C24.3714 12.5653 24.4568 12.1173 24.4568 11.648C24.4568 11.1787 24.3714 10.7307 24.2008 10.304C24.0301 9.87733 23.7688 9.53067 23.4168 9.264C23.0648 8.99733 22.6274 8.864 22.1048 8.864C21.5714 8.864 21.1288 8.99733 20.7768 9.264C20.4248 9.53067 20.1634 9.87733 19.9928 10.304C19.8221 10.7307 19.7368 11.1787 19.7368 11.648C19.7368 12.1173 19.8221 12.5653 19.9928 12.992C20.1634 13.4187 20.4248 13.7707 20.7768 14.048C21.1288 14.3147 21.5714 14.448 22.1048 14.448ZM28.3997 16V7.52H30.2238V8.64H30.2878C30.4478 8.30933 30.6984 8.016 31.0398 7.76C31.3918 7.49333 31.8984 7.36 32.5598 7.36C32.7624 7.36 32.9331 7.37067 33.0718 7.392C33.2211 7.41333 33.2958 7.424 33.2958 7.424V9.184C33.2958 9.184 33.2158 9.17333 33.0558 9.152C32.8958 9.13067 32.7144 9.12 32.5118 9.12C31.7651 9.12 31.1944 9.33333 30.7998 9.76C30.4158 10.176 30.2238 10.8533 30.2238 11.792V16H28.3997ZM38.4496 16.16C37.5216 16.16 36.7376 15.952 36.0976 15.536C35.4683 15.12 34.9883 14.576 34.6576 13.904C34.3376 13.232 34.1776 12.5173 34.1776 11.76C34.1776 11.0027 34.3376 10.288 34.6576 9.616C34.9883 8.944 35.4683 8.4 36.0976 7.984C36.7376 7.568 37.5216 7.36 38.4496 7.36C39.367 7.36 40.1403 7.568 40.7696 7.984C41.4096 8.4 41.8896 8.944 42.2096 9.616C42.5403 10.288 42.7056 11.0027 42.7056 11.76C42.7056 12.5173 42.5403 13.232 42.2096 13.904C41.8896 14.576 41.4096 15.12 40.7696 15.536C40.1403 15.952 39.367 16.16 38.4496 16.16ZM38.4496 14.608C38.9723 14.608 39.4096 14.4747 39.7616 14.208C40.1243 13.9413 40.3963 13.5893 40.5776 13.152C40.7696 12.7147 40.8656 12.2507 40.8656 11.76C40.8656 11.2587 40.7696 10.7947 40.5776 10.368C40.3963 9.93067 40.1243 9.57867 39.7616 9.312C39.4096 9.04533 38.9723 8.912 38.4496 8.912C37.927 8.912 37.4843 9.04533 37.1216 9.312C36.759 9.57867 36.487 9.93067 36.3056 10.368C36.1243 10.7947 36.0336 11.2587 36.0336 11.76C36.0336 12.2507 36.1243 12.7147 36.3056 13.152C36.487 13.5893 36.759 13.9413 37.1216 14.208C37.4843 14.4747 37.927 14.608 38.4496 14.608ZM47.945 16.16C47.273 16.16 46.7183 16.0693 46.281 15.888C45.8543 15.696 45.513 15.4667 45.257 15.2C45.001 14.9227 44.809 14.6453 44.681 14.368C44.5637 14.0907 44.489 13.8613 44.457 13.68C44.425 13.488 44.409 13.392 44.409 13.392H46.185C46.185 13.392 46.201 13.4613 46.233 13.6C46.2757 13.728 46.3557 13.8773 46.473 14.048C46.5903 14.2187 46.7717 14.3733 47.017 14.512C47.2623 14.64 47.5877 14.704 47.993 14.704C48.4837 14.704 48.8463 14.592 49.081 14.368C49.3263 14.144 49.449 13.888 49.449 13.6C49.449 13.3227 49.3477 13.104 49.145 12.944C48.9423 12.784 48.6543 12.6613 48.281 12.576L47.129 12.32C46.681 12.2133 46.2597 12.0693 45.865 11.888C45.481 11.696 45.1663 11.4453 44.921 11.136C44.6863 10.816 44.569 10.4053 44.569 9.904C44.569 9.168 44.8463 8.56 45.401 8.08C45.9557 7.6 46.7023 7.36 47.641 7.36C48.249 7.36 48.7503 7.44533 49.145 7.616C49.5503 7.78667 49.8703 8 50.105 8.256C50.3397 8.50133 50.5157 8.752 50.633 9.008C50.7503 9.25333 50.825 9.46133 50.857 9.632C50.8997 9.792 50.921 9.872 50.921 9.872H49.209C49.209 9.872 49.193 9.81867 49.161 9.712C49.129 9.60533 49.0597 9.48267 48.953 9.344C48.8463 9.19467 48.6863 9.06667 48.473 8.96C48.2703 8.84267 47.993 8.784 47.641 8.784C47.161 8.784 46.8143 8.89067 46.601 9.104C46.3877 9.31733 46.281 9.54667 46.281 9.792C46.281 10.048 46.3823 10.2507 46.585 10.4C46.7983 10.5387 47.0757 10.6453 47.417 10.72L48.553 10.976C49.3103 11.1467 49.9343 11.4293 50.425 11.824C50.9157 12.208 51.161 12.768 51.161 13.504C51.161 13.9947 51.033 14.4427 50.777 14.848C50.5317 15.2427 50.169 15.5627 49.689 15.808C49.209 16.0427 48.6277 16.16 47.945 16.16ZM56.195 16.16C55.523 16.16 54.9683 16.0693 54.531 15.888C54.1043 15.696 53.763 15.4667 53.507 15.2C53.251 14.9227 53.059 14.6453 52.931 14.368C52.8137 14.0907 52.739 13.8613 52.707 13.68C52.675 13.488 52.659 13.392 52.659 13.392H54.435C54.435 13.392 54.451 13.4613 54.483 13.6C54.5257 13.728 54.6057 13.8773 54.723 14.048C54.8403 14.2187 55.0217 14.3733 55.267 14.512C55.5123 14.64 55.8377 14.704 56.243 14.704C56.7337 14.704 57.0963 14.592 57.331 14.368C57.5763 14.144 57.699 13.888 57.699 13.6C57.699 13.3227 57.5977 13.104 57.395 12.944C57.1923 12.784 56.9043 12.6613 56.531 12.576L55.379 12.32C54.931 12.2133 54.5097 12.0693 54.115 11.888C53.731 11.696 53.4163 11.4453 53.171 11.136C52.9363 10.816 52.819 10.4053 52.819 9.904C52.819 9.168 53.0963 8.56 53.651 8.08C54.2057 7.6 54.9523 7.36 55.891 7.36C56.499 7.36 57.0003 7.44533 57.395 7.616C57.8003 7.78667 58.1203 8 58.355 8.256C58.5897 8.50133 58.7657 8.752 58.883 9.008C59.0003 9.25333 59.075 9.46133 59.107 9.632C59.1497 9.792 59.171 9.872 59.171 9.872H57.459C57.459 9.872 57.443 9.81867 57.411 9.712C57.379 9.60533 57.3097 9.48267 57.203 9.344C57.0963 9.19467 56.9363 9.06667 56.723 8.96C56.5203 8.84267 56.243 8.784 55.891 8.784C55.411 8.784 55.0643 8.89067 54.851 9.104C54.6377 9.31733 54.531 9.54667 54.531 9.792C54.531 10.048 54.6323 10.2507 54.835 10.4C55.0483 10.5387 55.3257 10.6453 55.667 10.72L56.803 10.976C57.5603 11.1467 58.1843 11.4293 58.675 11.824C59.1657 12.208 59.411 12.768 59.411 13.504C59.411 13.9947 59.283 14.4427 59.027 14.848C58.7817 15.2427 58.419 15.5627 57.939 15.808C57.459 16.0427 56.8777 16.16 56.195 16.16ZM62.5723 16.16C62.2416 16.16 61.9643 16.048 61.7403 15.824C61.5269 15.5893 61.4203 15.3173 61.4203 15.008C61.4203 14.688 61.5269 14.416 61.7403 14.192C61.9643 13.968 62.2416 13.856 62.5723 13.856C62.9029 13.856 63.1749 13.968 63.3883 14.192C63.6123 14.416 63.7243 14.688 63.7243 15.008C63.7243 15.328 63.6123 15.6 63.3883 15.824C63.1749 16.048 62.9029 16.16 62.5723 16.16Z" fill="#02015A"/>
<path d="M70.1524 16.16C69.4377 16.16 68.8137 16.0373 68.2804 15.792C67.747 15.536 67.3044 15.2 66.9524 14.784C66.6004 14.3573 66.3337 13.8827 66.1524 13.36C65.9817 12.8373 65.8964 12.304 65.8964 11.76C65.8964 11.216 65.9817 10.6827 66.1524 10.16C66.3337 9.63733 66.6004 9.168 66.9524 8.752C67.3044 8.32533 67.747 7.98933 68.2804 7.744C68.8137 7.488 69.4377 7.36 70.1524 7.36C70.8564 7.36 71.4377 7.46667 71.8964 7.68C72.3657 7.88267 72.739 8.13867 73.0164 8.448C73.2937 8.75733 73.5017 9.06667 73.6404 9.376C73.779 9.68533 73.8644 9.94667 73.8964 10.16C73.939 10.3733 73.9604 10.48 73.9604 10.48H72.2324C72.2324 10.48 72.2057 10.4 72.1524 10.24C72.1097 10.08 72.019 9.89333 71.8804 9.68C71.7417 9.46667 71.5337 9.28 71.2564 9.12C70.9897 8.96 70.627 8.88 70.1684 8.88C69.6244 8.88 69.171 9.01867 68.8084 9.296C68.4457 9.56267 68.1684 9.91467 67.9764 10.352C67.795 10.7893 67.7044 11.2587 67.7044 11.76C67.7044 12.2613 67.795 12.7307 67.9764 13.168C68.1684 13.6053 68.4457 13.9627 68.8084 14.24C69.171 14.5067 69.6244 14.64 70.1684 14.64C70.627 14.64 70.9897 14.56 71.2564 14.4C71.5337 14.24 71.7417 14.0533 71.8804 13.84C72.019 13.6267 72.1097 13.44 72.1524 13.28C72.2057 13.12 72.2324 13.04 72.2324 13.04H73.9604C73.9604 13.04 73.939 13.1467 73.8964 13.36C73.8644 13.5733 73.779 13.8347 73.6404 14.144C73.5017 14.4533 73.2937 14.7627 73.0164 15.072C72.739 15.3813 72.3657 15.6427 71.8964 15.856C71.4377 16.0587 70.8564 16.16 70.1524 16.16ZM80.0278 16.16C79.0998 16.16 78.3158 15.952 77.6758 15.536C77.0464 15.12 76.5664 14.576 76.2358 13.904C75.9158 13.232 75.7558 12.5173 75.7558 11.76C75.7558 11.0027 75.9158 10.288 76.2358 9.616C76.5664 8.944 77.0464 8.4 77.6758 7.984C78.3158 7.568 79.0998 7.36 80.0278 7.36C80.9451 7.36 81.7184 7.568 82.3478 7.984C82.9878 8.4 83.4678 8.944 83.7878 9.616C84.1184 10.288 84.2838 11.0027 84.2838 11.76C84.2838 12.5173 84.1184 13.232 83.7878 13.904C83.4678 14.576 82.9878 15.12 82.3478 15.536C81.7184 15.952 80.9451 16.16 80.0278 16.16ZM80.0278 14.608C80.5504 14.608 80.9878 14.4747 81.3398 14.208C81.7024 13.9413 81.9744 13.5893 82.1558 13.152C82.3478 12.7147 82.4438 12.2507 82.4438 11.76C82.4438 11.2587 82.3478 10.7947 82.1558 10.368C81.9744 9.93067 81.7024 9.57867 81.3398 9.312C80.9878 9.04533 80.5504 8.912 80.0278 8.912C79.5051 8.912 79.0624 9.04533 78.6998 9.312C78.3371 9.57867 78.0651 9.93067 77.8838 10.368C77.7024 10.7947 77.6118 11.2587 77.6118 11.76C77.6118 12.2507 77.7024 12.7147 77.8838 13.152C78.0651 13.5893 78.3371 13.9413 78.6998 14.208C79.0624 14.4747 79.5051 14.608 80.0278 14.608ZM86.2279 16V7.52H88.0519V8.72H88.1159C88.2119 8.54933 88.3505 8.35733 88.5319 8.144C88.7239 7.93067 88.9745 7.74933 89.2839 7.6C89.5932 7.44 89.9825 7.36 90.4519 7.36C91.0812 7.36 91.6039 7.50933 92.0199 7.808C92.4359 8.10667 92.7452 8.50133 92.9479 8.992H92.9799C93.2039 8.56533 93.5292 8.18667 93.9559 7.856C94.3825 7.52533 94.9479 7.36 95.6519 7.36C96.2492 7.36 96.7559 7.504 97.1719 7.792C97.5879 8.06933 97.8972 8.448 98.0999 8.928C98.3132 9.39733 98.4199 9.93067 98.4199 10.528V16H96.5959V10.784C96.5959 10.2293 96.4625 9.776 96.1959 9.424C95.9292 9.072 95.5345 8.896 95.0119 8.896C94.5852 8.896 94.2385 9.01333 93.9719 9.248C93.7159 9.48267 93.5292 9.776 93.4119 10.128C93.2945 10.4693 93.2359 10.816 93.2359 11.168V16H91.4119V10.784C91.4119 10.2293 91.2785 9.776 91.0119 9.424C90.7452 9.072 90.3505 8.896 89.8279 8.896C89.4012 8.896 89.0545 9.01333 88.7879 9.248C88.5319 9.48267 88.3452 9.776 88.2279 10.128C88.1105 10.4693 88.0519 10.816 88.0519 11.168V16H86.2279Z" fill="#573CFF"/>
</svg>
